<svg xmlns="http://www.w3.org/2000/svg" viewBox="0 0 100 100">
  <rect width="100" height="100" rx="20" fill="#000"/>
  <svg viewBox="0 0 475 465" x="8" y="8" width="84" height="84"><path fill="rgb(17,17,17)" stroke="rgb(17,17,17)" stroke-width="0" opacity="1" d="M 193.5 72 L 206.5 73 L 234.5 79 L 262.5 82 L 280.5 86 L 314.5 103 L 328 113.5 L 310.5 118 L 301.5 115 L 296 109.5 L 294.5 107 L 292 108.5 L 286.5 116 Q 282.4 119.9 273.5 119 L 265 113.5 Q 262.43 110.57 263 104.5 L 265 98.5 L 267.5 96 L 269.5 95 Q 274.25 97.25 270 99.5 L 268 107.5 L 271.5 113 Q 279.75 114.25 284.5 112 L 294.5 103 L 303.5 111 L 315.5 112 Q 318.5 110.5 315.5 109 L 279.5 91 L 260.5 87 L 225.5 83 L 215.5 80 L 208.5 80 L 195.5 75 L 193.5 72 Z " /><path fill="rgb(17,17,17)" stroke="rgb(17,17,17)" stroke-width="0" opacity="1" d="M 201.5 83 L 213.5 83 L 219 88.5 L 217.5 89 L 200 84.5 L 201.5 83 Z " /><path fill="rgb(17,17,17)" stroke="rgb(17,17,17)" stroke-width="0" opacity="1" d="M 260.5 89 L 263.5 89 L 268 93.5 L 253.5 96 L 228.5 96 L 216 93.5 Q 218.06 91.06 223.5 92 L 226.5 90 L 233.5 90 L 234.5 91 L 246.5 91 L 247.5 90 L 259.5 90 L 260.5 89 Z " /><path fill="rgb(17,17,17)" stroke="rgb(17,17,17)" stroke-width="0" opacity="1" d="M 196.5 119 Q 203.5 117.5 203 120.5 L 207 122 L 208 124.5 L 203 128 L 203.5 130 L 223.5 130 L 225 131.5 L 220.5 136 L 214.5 141 L 212 138.5 L 213.5 136 L 208.5 136 L 200 127.5 L 202.5 124 L 194.5 125 L 183 133.5 L 178 143.5 L 185.5 151 L 189.5 151 L 197.5 148 L 206 156.5 L 206 158 L 218.5 159 L 219.5 158 L 240.5 156 L 258.5 165 L 263.5 164 L 268.5 168 L 272.5 164 L 274.5 164 L 289.5 176 L 292 174.5 L 292 181.5 L 290.5 182 L 275.5 170 L 270 169 L 269 173 L 263.5 169 L 259.5 169 L 256.5 170 L 243.5 162 L 231.5 162 L 221.5 164 L 209.5 164 L 204.5 163 L 200 159.5 L 201 152.5 L 199.5 153 L 186.5 157 L 179 157 L 181 147 L 169.5 152 L 169 149.5 Q 175.6 132.1 189.5 122 L 196.5 119 Z M 185 153 L 183 154 L 182 156 L 186 155 Q 187 152 185 153 Z " /><path fill="rgb(17,17,17)" stroke="rgb(17,17,17)" stroke-width="0" opacity="1" d="M 334.5 122 L 339.5 123 L 383.5 124 L 384.5 125 L 402.5 125 L 403.5 126 L 415.5 126 L 416.5 127 L 426 127.5 L 399.5 128 L 398.5 127 L 350.5 127 L 349.5 126 L 328.5 126 L 327.5 125 L 321 125 L 321.5 123 L 333.5 123 L 334.5 122 Z " /><path fill="rgb(17,17,17)" stroke="rgb(17,17,17)" stroke-width="0" opacity="1" d="M 287.5 127 L 303.5 128 L 325 132.5 L 302.5 139 L 289.5 147 L 288 145.5 L 296.5 137 L 302 134.5 L 300.5 133 L 281.5 133 L 261.5 138 L 240.5 146 Q 238.2 142.8 231.5 144 L 220.5 147 L 216.5 142 L 233.5 138 L 239 139 L 238 141.5 L 240.5 142 L 244.5 139 L 263.5 132 L 287.5 127 Z " /><path fill="rgb(17,17,17)" stroke="rgb(17,17,17)" stroke-width="0" opacity="1" d="M 329.5 142 L 334 142.5 Q 321.15 147.65 313 157.5 Q 310.14 161.14 311 168.5 L 316 178.5 L 319 190.5 L 316.5 197 L 307.5 187 L 295 176.5 L 293 172.5 Q 294.75 169.25 296.5 173 L 312.5 187 L 313 185.5 L 306 170.5 L 305 163.5 Q 307.54 154.54 315 150.5 L 312.5 150 L 296.5 154 L 293 150.5 L 294.5 149 L 329.5 142 Z " /><path fill="rgb(17,17,17)" stroke="rgb(17,17,17)" stroke-width="0" opacity="1" d="M 171.5 174 L 175 174.5 L 158 182.5 L 161 184.5 L 156.5 187 L 154.5 184 L 149 186.5 L 155 187 L 155.5 189 L 162.5 189 L 163.5 191 L 150.5 192 L 143.5 195 L 137.5 192 L 118.5 205 L 116.5 205 L 117 203.5 L 121.5 198 Q 134.38 187.38 150.5 180 L 171.5 174 Z " /><path fill="rgb(17,17,17)" stroke="rgb(17,17,17)" stroke-width="0" opacity="1" d="M 228.5 174 Q 247.68 174.32 255 186.5 L 262 200.5 L 264 214 L 267.5 215 L 271 213 Q 274.5 222.19 282.5 228 L 288 230 L 289 223 Q 291.67 221.88 291 224.5 L 302.5 238 L 307.5 241 L 310 237.5 L 310.5 225 L 314 235.5 L 314 249.5 L 311 259.5 Q 306.75 268.25 299.5 274 L 295.5 276 L 292 273.5 L 289 259 Q 286.33 257.88 287 260.5 L 282.5 268 Q 274.12 261.76 273 249 L 269 251.5 L 265.5 257 L 263 255.5 L 254.5 231 L 246.5 242 L 242.5 243 L 243 241.5 L 248 224.5 L 249 206.5 Q 246.25 204.75 248 198.5 L 245 189.5 L 236.5 181 L 227 177 L 228.5 174 Z M 250 187 L 249 189 L 251 190 L 250 187 Z M 252 190 L 251 193 L 254 202 L 254 219 L 252 230 L 254 229 L 263 239 L 266 250 L 271 246 Q 278 251 282 260 Q 281 262 284 261 L 288 257 L 296 266 Q 294 271 298 270 L 306 259 L 309 245 L 307 246 L 290 230 L 285 234 L 281 232 L 269 219 L 267 220 L 258 212 Q 258 197 252 190 Z " /><path fill="rgb(17,17,17)" stroke="rgb(17,17,17)" stroke-width="0" opacity="1" d="M 188.5 187 Q 192.25 185.75 191 189.5 L 183.5 198 L 175.5 201 L 169 201 Q 169.08 195.38 173.5 193 L 188.5 187 Z " /><path fill="rgb(17,17,17)" stroke="rgb(17,17,17)" stroke-width="0" opacity="1" d="M 207.5 194 L 211 194.5 L 207 204.5 L 204.5 207 L 187.5 209 Q 184.75 207.75 187 206.5 L 190.5 202 L 207.5 194 Z " /><path fill="rgb(17,17,17)" stroke="rgb(17,17,17)" stroke-width="0" opacity="1" d="M 225.5 202 L 229 202.5 L 227 209.5 L 221 219 L 218 220.5 Q 218.75 222.75 216.5 222 L 210.5 226 L 204 219.5 L 204 216.5 L 211.5 208 L 225.5 202 Z M 221 209 L 210 214 L 211 221 L 215 219 L 221 211 L 221 209 Z " /><path fill="rgb(17,17,17)" stroke="rgb(17,17,17)" stroke-width="0" opacity="1" d="M 139.5 209 L 143.5 214 L 147.5 214 Q 150.59 210.3 156 210 L 156 221.5 L 158.5 224 L 162.5 225 L 173.5 220 L 173 221.5 Q 171.5 228.5 175.5 230 L 182.5 231 L 190 227 L 190 236.5 L 197.5 246 L 204.5 246 L 213 242 L 213 251.5 L 216.5 256 L 226 251 Q 225.42 258.87 218.5 262 L 212.5 265 L 207.5 265 Q 201.88 262.63 203 255 L 191.5 262 L 184.5 263 L 181 261 L 180 251.5 L 182.5 246 Q 186.75 246.75 186 252.5 L 185 257 L 190.5 257 L 199 251.5 Q 190.8 248.7 187 241.5 L 184.5 235 Q 182.75 237.75 176.5 236 L 168.5 228 L 167.5 229 L 160.5 230 L 149.5 218 L 143 219.5 L 144 223 L 146.5 223 L 155 231.5 L 144.5 242 L 137 243.5 L 138 245.5 Q 132.64 252.64 122.5 255 Q 119.25 253.25 121 246.5 L 123 237 L 128 240.5 L 127 247.5 L 128.5 247 L 135 242.5 L 125 233.5 Q 125.9 230.13 120.5 232 L 122 234.5 L 113.5 243 Q 110.75 241.75 113 240.5 Q 113.67 237.88 111 239 L 109.5 242 L 104.5 244 L 101 241.5 L 100 236.5 Q 103.65 224.15 111.5 216 L 113 224 L 116.5 226 L 127.5 226 L 129 227.5 Q 129.35 234.15 133.5 237 L 141.5 238 L 150 232.5 L 151 230.5 L 140 227 Q 136.75 222.06 138 211.5 L 139.5 209 Z M 111 225 L 106 235 L 107 238 L 110 236 L 113 238 L 119 233 L 111 225 Z M 207 250 L 202 251 L 210 260 L 214 259 L 208 253 Q 209 249 207 250 Z " /><path fill="rgb(17,17,17)" stroke="rgb(17,17,17)" stroke-width="0" opacity="1" d="M 163.5 237 Q 165.5 244 176.5 242 L 177.5 241 L 181 244.5 Q 177.88 248.88 169.5 248 L 167 247 L 164.5 240 Q 155.7 247.2 157 264.5 L 159 269 L 165.5 271 L 170 267.5 Q 169.33 264.88 172 266 Q 170.43 275.22 176.5 278 L 179.5 279 L 187.5 276 L 186 278.5 L 177.5 288 L 168.5 292 L 165 289.5 L 164 282 L 157.5 287 L 154.5 287 L 151 283.5 L 149 270.5 L 150 267.5 Q 147.75 263.75 145.5 269 Q 143.17 271.67 137.5 271 Q 133 269 135 260.5 L 138 250.5 L 140.5 247 L 144 250.5 L 143 251.5 L 141 256.5 L 141 265 L 146.5 263 L 155 271.5 Q 154 279 156 282 L 161.5 278 L 169.5 286 L 171.5 286 L 176 284 L 168.5 275 L 162.5 276 L 152 265.5 Q 153.5 260 151 258.5 L 155 245.5 L 163.5 237 Z " /><path fill="rgb(17,17,17)" stroke="rgb(17,17,17)" stroke-width="0" opacity="1" d="M 85.5 248 Q 88.25 249.25 86 250.5 L 86 254.5 L 82 267.5 L 76.5 274 Q 72.91 270.09 74 261.5 L 78 263.5 L 79 260 L 76 258.5 Q 75.5 254.5 78.5 254 L 85.5 248 Z " /><path fill="rgb(17,17,17)" stroke="rgb(17,17,17)" stroke-width="0" opacity="1" d="M 240.5 252 Q 243.12 251.17 242 254.5 L 243 255.5 L 243 263.5 L 246.5 268 L 250 266.5 L 251.5 264 L 254 274.5 L 257.5 278 Q 264 279.5 265.5 276 L 268 288.5 L 272.5 294 L 275.5 295 L 280 291.5 L 283.5 287 L 284 295.5 Q 277.94 315.44 263.5 327 Q 258.77 331.77 249.5 332 L 250 330.5 L 257.5 320 L 261.5 323 Q 272.14 314.64 277 300.5 L 273.5 300 L 263 289.5 L 260.5 284 L 258.5 284 L 249 274.5 Q 249.83 271.88 246.5 273 L 237 264.5 L 223 285.5 L 191.5 317 L 174 330 L 176 333.5 L 158.5 339 L 150.5 340 L 152.5 337 L 173.5 326 L 186.5 316 L 216 287.5 L 240.5 252 Z " /><path fill="rgb(17,17,17)" stroke="rgb(17,17,17)" stroke-width="0" opacity="1" d="M 92.5 270 L 96 271.5 Q 94.5 277.5 97.5 279 Q 105.45 278.45 108.5 273 L 109 285.5 L 110.5 287 L 113.5 288 L 121.5 282 L 124 282 Q 122.64 290.54 127.5 294 L 139.5 289 L 140 300.5 L 143.5 304 L 152.5 303 L 149.5 307 L 144.5 305 Q 141.04 309.54 132.5 309 L 127 305.5 L 124.5 300 L 116.5 304 L 113 299.5 Q 114.75 292.75 111.5 291 Q 108.54 296.04 101.5 297 L 97 293.5 L 93 287.5 L 93 285 Q 88.88 283.67 90 287 L 86 287 Q 83.43 284.71 84 278.5 L 90.5 271 L 92.5 270 Z M 90 276 L 90 281 L 101 291 L 106 291 L 108 289 L 103 283 L 101 284 L 90 276 Z M 118 290 L 116 292 L 120 298 L 124 295 L 120 290 L 118 290 Z M 134 297 L 129 299 L 132 303 L 137 303 L 134 297 Z " /><path fill="rgb(17,17,17)" stroke="rgb(17,17,17)" stroke-width="0" opacity="1" d="M 210.5 276 L 211 277.5 L 200.5 289 Q 189.92 298.92 176.5 306 L 163.5 312 L 153.5 313 L 154.5 311 Q 169.8 298.8 189.5 291 L 210.5 276 Z " /><path fill="rgb(17,17,17)" stroke="rgb(17,17,17)" stroke-width="0" opacity="1" d="M 59.5 299 L 65.5 308 L 69.5 308 Q 71.95 303.55 77 303 L 79 311.5 L 75.5 309 L 67.5 314 L 62.5 310 L 62 312.5 L 71.5 323 L 81 314.5 L 80 311 L 82.5 310 L 83 315 L 86.5 315 L 93 310 Q 93.88 315.91 98.5 319 L 108.5 316 L 108 317.5 L 101.5 325 L 95.5 328 L 88.5 328 L 85 325.5 L 80.5 319 L 74.5 327 L 70.5 328 L 66 324.5 Q 63 321.25 64 315 Q 61 314 62 317 L 59.5 317 L 57 314.5 L 56 307.5 L 59.5 299 Z M 91 316 L 86 321 Q 88 325 95 323 L 96 322 L 91 316 Z " /><path fill="rgb(17,17,17)" stroke="rgb(17,17,17)" stroke-width="0" opacity="1" d="M 252.5 314 L 255.5 318 Q 243.1 328.1 223.5 331 L 224 329.5 L 228.5 320 L 232.5 324 L 233.5 323 Q 245.33 320.83 252.5 314 Z " /><path fill="rgb(17,17,17)" stroke="rgb(17,17,17)" stroke-width="0" opacity="1" d="M 223.5 315 L 226.5 319 L 206.5 333 L 196.5 338 L 190.5 339 L 196.5 332 L 209.5 326 L 223.5 315 Z " /><path fill="rgb(17,17,17)" stroke="rgb(17,17,17)" stroke-width="0" opacity="1" d="M 122.5 322 L 127 322.5 Q 104.08 335.08 84.5 351 L 58.5 365 L 62.5 360 Q 89.58 338.08 122.5 322 Z " /><path fill="rgb(17,17,17)" stroke="rgb(17,17,17)" stroke-width="0" opacity="1" d="M 185.5 332 Q 189.5 331.5 190 334.5 L 174.5 343 L 172 343 L 176.5 335 L 179.5 335 L 185.5 332 Z " /><path fill="rgb(17,17,17)" stroke="rgb(17,17,17)" stroke-width="0" opacity="1" d="M 243.5 343 Q 255.31 342.69 259 350.5 Q 261.57 353.43 261 359.5 L 255.5 369 L 254 358.5 L 249.5 352 Q 245 347.5 234.5 349 L 228.5 351 L 226 353.5 L 227 363.5 L 225 372.5 L 217.5 385 L 217 382.5 L 219 379.5 Q 217.83 371.83 221 368.5 L 221 356.5 L 220 354 Q 214.96 351.32 206.5 351 L 205.5 352 L 197.5 352 L 187.5 354 L 170.5 359 L 163.5 359 L 158 364.5 L 160.5 365 L 177.5 359 L 187.5 359 Q 198.92 363.58 205 373.5 L 209 381.5 L 204.5 389 L 200.5 390 L 201 388.5 L 203 383.5 L 203 379.5 L 194.5 368 Q 189.83 362.67 178.5 364 L 154.5 372 L 135.5 376 L 127 380.5 L 126 383.5 L 131.5 388 L 144.5 388 L 152.5 386 L 160.5 386 L 160.5 387 L 155.5 387 L 148.5 389 L 145.5 391 L 122.5 398 L 128 391.5 L 121 382.5 L 130.5 373 L 138 370.5 L 132.5 369 L 123.5 361 L 95.5 383 L 78.5 393 L 73.5 388 L 71 390.5 L 68 395.5 L 67 401 L 75.5 395 L 78.5 399 L 76.5 399 L 67.5 407 L 60 408 L 61 399.5 L 72.5 381 L 75 382.5 L 76 388 L 80.5 387 L 103.5 372 L 125.5 354 L 136.5 350 L 136.5 351 L 129 356.5 Q 128.37 361.62 131.5 363 Q 135.5 366 143.5 365 L 168 355.5 L 167.5 354 L 195.5 347 L 212.5 346 L 223.5 352 Q 231.06 345.06 243.5 343 Z " /><path fill="rgb(17,17,17)" stroke="rgb(17,17,17)" stroke-width="0" opacity="1" d="M 117.5 344 L 119 344.5 L 97.5 361 L 77.5 371 L 79.5 368 L 117.5 344 Z " /><path fill="rgb(17,17,17)" stroke="rgb(17,17,17)" stroke-width="0" opacity="1" d="M 106.5 385 L 109 387.5 L 104.5 392 L 88.5 404 Q 85.83 406.83 79.5 406 Q 76.75 404.75 79 403.5 L 80.5 400 L 83.5 401 L 92.5 396 L 106.5 385 Z " /><path fill="rgb(17,17,17)" stroke="rgb(17,17,17)" stroke-width="0" opacity="1" d="M 111.5 390 L 115 393.5 L 114 394.5 L 111.5 400 L 106 402 L 111.5 390 Z " /><path fill="rgb(245,245,245)" stroke="rgb(245,245,245)" stroke-width="0" opacity="1" d="M 159.5 25 L 194.5 39 L 198.5 42 L 206.5 44 L 215.5 49 L 218.5 49 L 236.5 56 L 237.5 54 Q 224.7 51.3 217 43.5 L 220.5 41 L 267.5 54 L 284.5 60 L 302.5 69 L 318.5 80 L 325 86.5 L 337.5 105 L 346.5 105 L 353.5 107 L 359.5 107 L 389.5 114 L 400.5 115 L 422.5 121 L 428.5 121 L 448.5 125 L 451 127.5 L 448.5 131 L 402.5 136 L 401.5 137 L 393.5 137 L 385.5 139 L 369.5 140 L 368.5 141 L 343.5 144 Q 331.17 147.67 325 157.5 Q 320.31 161.31 322 171.5 L 330 198.5 L 331 224.5 L 326 228 L 324 251.5 L 315 276.5 Q 301.88 302.38 281.5 321 L 262 336.5 Q 270.22 338.28 274 344.5 L 277 349.5 Q 276.3 356.55 278 360 L 282 357.5 L 282 347.5 L 284.5 345 L 301.5 343 L 302.5 342 L 309.5 342 L 310.5 341 L 319.5 341 Q 325.25 342.25 328 346.5 L 323.5 350 L 313 351 Q 311.62 355 318.5 353 L 319.5 352 L 330.5 351 L 335 357.5 L 334 361.5 L 329.5 366 L 270.5 376 Q 267.25 375.25 268 370.5 L 270 365 L 266 367.5 L 266 369.5 L 259.5 376 L 255.5 378 L 223.5 385 L 220 381.5 L 221 380.5 L 227 368.5 L 227 356.5 L 226 354.5 L 229.5 351 L 238.5 349 Q 239.75 351.25 244.5 350 L 251 354.5 Q 255.25 360.25 254.5 371 L 261 361.5 L 261 353.5 L 254.5 345 Q 249.83 341.17 239.5 343 L 223.5 351 Q 217.83 345.17 206.5 345 L 205.5 346 L 197.5 346 L 187.5 348 L 170.5 353 Q 162.15 352.1 158 354 L 159 357.5 L 154.5 361 L 145.5 364 L 135.5 364 L 130 360.5 L 130 357.5 L 135.5 352 L 141 348.5 L 138.5 348 L 124.5 354 Q 104.08 373.08 78.5 387 Q 74.92 384.88 75 380 L 71 381.5 L 62 395.5 L 59 407.5 L 62.5 409 Q 71.22 407.22 75.5 401 Q 78.75 402.17 78 406 L 83.5 407 L 92.5 402 L 106.5 391 Q 110.75 392.75 108 394.5 Q 107.21 400.71 103 403.5 L 98 422.5 L 92.5 430 L 89.5 432 Q 86.25 431.25 87 426.5 L 88 422 Q 85 420.75 86 424.5 L 76.5 436 L 71.5 439 L 68 434.5 L 69 431.5 L 60.5 439 L 50.5 441 L 48 437.5 L 52 431.5 L 50.5 431 Q 48.25 436.25 41.5 437 L 40 436.5 L 37.5 440 Q 28.32 440.18 25 434.5 L 25 431.5 L 48 396.5 L 59 382.5 L 61 377.5 L 58.5 379 L 34.5 386 Q 31.5 385.5 32 381.5 L 46 355.5 L 57 340 L 54.5 341 L 53.5 340 L 50.5 343 L 43.5 345 L 41 342.5 L 41 332.5 L 51 306.5 L 54.5 302 Q 58.75 303.75 56 305.5 Q 54.33 314.17 58.5 317 Q 63.5 316.5 64 320.5 L 67 327 L 71.5 329 L 80.5 321 L 86.5 328 L 94.5 329 Q 103.83 325.83 109 318.5 L 110 315 L 98.5 318 L 95 314.5 L 92.5 308 L 86.5 314 L 84 311.5 L 82.5 308 Q 80.75 310.75 79 306.5 L 76.5 302 L 67.5 308 L 62 303.5 L 61 298 L 58.5 299 Q 54.25 297.25 57 295.5 L 68 271.5 L 69 266.5 L 71.5 264 L 74 266.5 Q 73.25 272.25 75.5 275 L 79 272.5 Q 87.36 263.86 87 246.5 L 78.5 254 L 75 251.5 Q 80.29 233.29 90 219.5 Q 104.38 198.38 123.5 182 Q 140.04 171.04 153 156.5 L 163 127.5 L 161.5 128 L 156.5 131 Q 152.25 129.25 155 127.5 L 158 116.5 L 164 105.5 L 174 92 L 169.5 95 L 167 91.5 L 175 83.5 L 173.5 82 L 165.5 81 L 162 77.5 L 164.5 75 L 177 75 Q 178.25 72 174.5 73 L 171.5 72 L 169.5 73 L 150.5 68 L 148 65.5 L 150.5 62 L 166.5 62 L 171.5 61 L 176.5 62 L 181.5 61 L 185 62 Q 186.8 57.13 180.5 59 Q 167.98 56.52 160 49.5 Q 160.75 46.25 165.5 47 L 184 51 Q 185.12 48.33 182.5 49 Q 168.62 42.88 160 31.5 L 157 27.5 L 159.5 25 Z M 195 71 L 194 72 Q 191 71 192 74 Q 196 77 203 78 Q 208 81 203 83 Q 197 81 198 85 L 209 88 L 213 88 L 216 92 L 215 94 L 225 96 L 234 96 L 235 97 L 247 97 L 248 96 L 260 96 L 261 95 Q 265 94 266 98 L 263 102 Q 264 106 262 108 L 265 115 L 272 119 Q 280 120 285 118 L 295 109 Q 298 116 307 118 L 316 118 Q 318 115 325 116 L 329 114 L 311 100 L 280 85 L 261 81 L 232 78 L 216 74 L 200 72 L 198 72 L 195 71 Z M 337 110 L 336 115 L 350 115 L 349 113 L 342 112 Q 340 109 337 110 Z M 199 118 L 188 123 Q 174 133 168 151 L 169 153 L 177 149 L 180 152 L 177 157 L 182 158 Q 191 158 198 154 Q 201 155 200 161 L 206 164 Q 211 163 213 165 L 236 163 L 237 162 L 245 163 L 258 171 L 260 170 L 264 170 L 268 173 L 269 174 L 273 170 L 275 170 L 291 183 L 293 183 L 292 181 L 295 177 L 307 187 L 317 198 L 319 195 L 319 186 L 312 171 L 311 166 L 313 159 Q 320 148 334 144 L 335 142 L 326 142 L 325 143 L 313 144 L 299 148 Q 295 149 294 146 L 307 138 L 326 134 Q 327 131 324 132 L 322 132 L 301 127 L 282 127 L 277 128 L 262 132 L 243 140 L 238 138 L 222 140 Q 220 143 218 139 L 226 132 L 223 129 L 215 129 L 214 130 Q 207 131 206 128 L 209 124 L 203 118 L 199 118 Z M 323 122 L 322 123 Q 317 122 318 125 L 321 126 L 335 126 L 336 127 L 426 128 L 427 129 L 430 128 L 423 126 L 396 125 L 395 124 L 379 124 L 378 123 L 323 122 Z M 177 172 L 152 179 Q 134 186 121 198 Q 116 201 115 206 L 120 205 L 138 193 L 143 195 L 150 193 L 164 192 L 165 191 L 161 183 L 166 179 L 182 173 L 177 172 Z M 232 173 L 228 174 L 226 177 L 239 183 L 245 191 L 248 202 L 248 219 L 243 241 Q 239 242 243 244 L 248 242 L 254 235 L 257 239 L 262 256 L 266 258 L 271 252 L 283 269 L 288 263 L 290 266 L 291 274 L 294 276 Q 299 277 301 274 L 312 259 L 315 248 L 315 237 L 311 225 L 308 223 L 309 225 L 309 238 L 307 240 L 305 239 Q 295 232 290 221 Q 289 227 285 228 L 281 226 L 271 212 L 267 214 L 264 212 Q 264 202 261 196 L 255 186 L 246 177 L 232 173 Z M 191 186 L 183 188 L 170 195 L 168 199 L 170 202 L 175 202 L 186 197 L 192 190 Q 193 185 191 186 Z M 211 191 L 208 194 L 190 202 L 186 207 L 186 209 L 189 210 L 206 207 L 209 203 L 212 194 L 211 191 Z M 224 202 L 214 206 L 204 215 L 204 221 L 211 227 L 218 223 L 226 213 L 230 203 L 224 202 Z M 140 208 L 138 210 L 138 219 L 137 220 L 139 226 L 149 232 L 142 237 L 134 236 L 131 234 L 129 225 L 125 226 L 117 225 Q 112 224 113 219 L 112 215 L 101 232 L 100 242 L 105 245 L 110 242 L 114 244 L 120 238 L 122 241 L 120 250 Q 119 255 123 256 L 132 252 L 136 248 L 138 251 L 135 257 L 135 270 L 138 272 Q 144 272 147 269 L 149 272 L 150 283 L 155 288 L 158 288 L 162 284 L 167 292 L 172 292 L 180 287 L 190 276 Q 192 277 191 274 L 182 278 L 177 277 L 173 274 Q 174 269 172 268 L 173 265 L 167 270 L 163 270 L 158 266 Q 160 260 157 259 L 160 248 L 164 243 L 166 247 Q 169 249 177 248 Q 178 245 180 250 L 179 254 Q 179 261 184 263 L 191 263 L 201 257 L 208 266 Q 216 266 220 262 Q 226 258 228 250 L 229 248 L 221 254 L 217 255 L 213 250 Q 212 244 214 243 L 214 240 L 202 246 L 196 244 L 190 235 L 191 230 L 190 226 L 184 230 Q 175 232 173 227 L 175 219 L 173 219 L 165 224 L 161 224 L 156 220 Q 155 214 157 213 L 156 209 L 149 213 L 145 213 L 140 208 Z M 241 251 L 217 286 Q 198 307 176 324 L 149 338 L 151 341 L 171 336 Q 172 333 174 338 Q 171 340 172 344 L 175 344 L 186 338 L 190 340 L 196 339 L 205 335 L 221 324 Q 223 318 226 324 L 223 332 Q 240 330 252 321 Q 253 318 255 323 L 248 332 Q 247 334 250 333 L 252 333 L 257 332 L 265 327 Q 279 315 285 295 L 285 287 L 284 286 L 282 289 L 277 294 L 274 294 Q 269 291 267 285 L 267 275 L 262 278 L 259 278 Q 252 274 253 263 L 247 267 L 244 265 Q 245 257 242 253 Q 243 250 241 251 Z M 93 269 L 84 277 Q 82 285 87 288 L 91 287 L 98 296 L 101 297 L 106 297 L 111 293 L 113 296 Q 112 302 116 304 Q 122 305 124 301 L 127 307 L 131 309 Q 141 311 145 306 L 151 307 Q 154 306 153 302 L 144 303 L 140 298 Q 139 293 141 292 L 140 289 L 129 293 L 125 290 L 124 281 Q 118 282 115 287 Q 110 288 109 284 L 110 272 L 100 278 Q 95 277 96 271 L 93 269 Z M 211 275 L 192 289 Q 170 298 153 312 L 155 315 Q 191 304 212 278 Q 213 274 211 275 Z M 129 320 L 115 325 L 93 338 L 52 368 L 53 369 L 86 351 L 117 329 L 129 323 Q 132 322 129 320 Z M 125 339 L 74 371 L 73 373 L 76 373 L 102 359 L 126 340 L 125 339 Z M 69 344 L 63 348 L 55 357 L 60 355 L 71 346 Q 72 343 69 344 Z " /><path fill="rgb(245,245,245)" stroke="rgb(245,245,245)" stroke-width="0" opacity="1" d="M 177.5 365 Q 185.75 363.75 190.5 366 L 199 373.5 L 203 381.5 Q 201.46 387.96 196.5 391 L 168.5 402 L 162.5 403 L 150.5 408 L 142.5 409 L 135.5 407 L 128 400.5 L 127 398.5 L 129.5 396 L 144.5 392 L 153.5 388 L 166 386 Q 167.25 383 163.5 384 L 156.5 386 L 134.5 388 L 130.5 387 L 127 383.5 L 130.5 379 Q 143.92 373.42 160.5 371 L 177.5 365 Z " /></svg>
</svg>