<svg viewBox="0 0 470 471" version="1.1" xmlns="http://www.w3.org/2000/svg" desc="Created with imagetracer.js version 1.2.6" ><path fill="rgb(13,13,13)" stroke="rgb(13,13,13)" stroke-width="0" opacity="1" d="M 149.5 25 L 208.5 53 L 224.5 59 L 227.5 59 L 227.5 58 L 203.5 47 L 191 37.5 L 192.5 37 L 201.5 41 L 205.5 41 L 208.5 43 L 211.5 43 L 240.5 53 L 247.5 54 L 275.5 64 L 299.5 76 L 317 90.5 L 328.5 106 L 346.5 109 L 358.5 113 L 372.5 115 L 385.5 119 L 394.5 120 L 428.5 129 Q 438.92 129.35 446 132 Q 447.31 135.33 442.5 134 L 441.5 135 L 405.5 139 L 404.5 140 L 395.5 140 L 394.5 141 L 385.5 141 L 384.5 142 L 375.5 142 L 367.5 144 L 357.5 144 L 356.5 145 L 334.5 147 L 321 154.5 L 313 167.5 L 313 176.5 L 322 202.5 L 324 222.5 L 323 223.5 L 322.5 236 L 321 234.5 L 319.5 227 L 317 233.5 L 317 239.5 L 314 255.5 L 307 277.5 Q 293.43 305.93 272.5 327 Q 265.62 335.12 255 339.5 L 267.5 344 L 272.5 349 L 277.5 349 L 297.5 345 L 318.5 345 L 322 347.5 L 321 352 L 317 352.5 L 326 356 L 327 362.5 L 325 368.5 L 322.5 371 L 309.5 375 L 284.5 377 L 256.5 382 L 257.5 380 L 261 377.5 L 264 366.5 L 262 367.5 Q 259.49 375.99 253.5 381 L 234.5 386 L 230.5 386 L 213.5 392 L 210 392 L 214 379.5 L 214 368.5 L 213 368.5 L 212 378.5 L 208 387.5 L 204.5 391 L 200.5 394 L 185.5 398 L 152.5 412 L 139.5 412 L 131 407.5 L 129 401.5 Q 133.17 396.17 140.5 394 Q 153.84 391.34 164 385.5 L 161.5 385 L 146.5 390 L 133.5 392 L 128 389.5 Q 127.25 385.75 129.5 385 L 146.5 376 L 167.5 370 L 182.5 369 Q 190.3 370.2 194 375.5 L 195.5 383 Q 199.37 380.37 200 374.5 L 199 370.5 L 195.5 366 Q 189.19 360.31 175.5 362 L 163.5 365 Q 162.05 361.75 157 363 Q 155.88 360.33 158.5 361 L 184.5 349 L 191.5 347 L 201.5 347 Q 210.17 349.83 215 356.5 L 216.5 359 L 232.5 354 L 238.5 354 L 245 358.5 Q 248.17 361.83 247 369.5 L 246 372 L 249 370.5 Q 252.33 366.83 251 358.5 L 245.5 351 L 237.5 348 L 231.5 348 Q 229.75 350.75 223.5 349 L 223.5 348 Q 249.28 339.28 265 320.5 Q 275.77 306.92 279 287 L 276 288.5 L 274.5 291 L 265.5 296 L 262 290.5 L 262 279 L 255.5 283 L 255.5 281 L 252.5 282 L 250 281 L 248 276.5 L 247 264 Q 243.25 262.5 244 265.5 L 242 269 L 239 267.5 L 238 251.5 L 240 247 L 245 243.5 L 249.5 237 L 251 238.5 L 253 253.5 L 257.5 259 L 266 254 L 268 263.5 L 272.5 269 Q 278 270 279 266.5 L 280.5 262 L 282 276.5 L 285.5 281 Q 292.75 280.75 295 275.5 Q 302.31 265.81 305 251.5 L 305 232.5 L 303 231.5 L 299 246 L 296 244.5 L 293 238.5 L 281.5 226 L 279 227.5 L 276.5 234 Q 272.75 235.25 274 231.5 L 265.5 219 L 262.5 217 L 259.5 221 L 257 217.5 L 257 207.5 L 255 199.5 Q 251.31 189.19 243.5 183 L 230.5 177 L 222.5 177 L 220 178.5 Q 229.19 182.81 235 190.5 Q 241.26 198.74 242 212.5 L 242 214.5 L 240 232.5 L 238 241.5 L 235 247.5 L 235 253.5 L 226 263.5 Q 218.7 278.7 208 290.5 L 184.5 314 L 143.5 344 L 126 359.5 Q 125.5 364.5 129.5 365 L 141 368 Q 142.13 370.67 139.5 370 Q 128.41 374.91 121 383.5 L 112 398.5 L 100 428.5 L 93.5 437 L 86 440 L 87 428.5 L 86 428.5 Q 83.08 436.58 76.5 441 L 70.5 444 L 66.5 444 L 62.5 441 Q 59.13 447.13 49.5 447 Q 45.75 445.5 47 440 L 38.5 443 L 27.5 443 L 25 442 L 25 436.5 L 31 423.5 L 57 383.5 L 55.5 384 L 30 390 L 39 368.5 L 47 352.5 L 53 345.5 L 53 343.5 L 52 343.5 Q 52.75 345.75 50.5 345 Q 47.75 349.5 40 348 Q 44.12 325.78 53.5 308 Q 52.82 317.18 56.5 322 L 58.5 322 L 62.5 318 L 63 328.5 L 66.5 332 L 70.5 331 L 78.5 324 L 84.5 332 L 94.5 330 L 105 323 L 107 319.5 L 104.5 319 L 100.5 321 L 93.5 322 L 91 319.5 L 91 312 L 82.5 317 L 79 317 Q 76.43 314.71 77 308.5 L 74.5 305 Q 70.79 310.6 61 309 L 58.5 297 L 57 297.5 L 67.5 271 L 69 277 L 74.5 278 L 80.5 274 L 81 275.5 Q 78.43 278.43 79 284.5 L 80 288.5 L 83.5 292 L 91 293 L 90 295.5 Q 92.25 296.75 91 301.5 L 92.5 303 L 95.5 304 L 105 302 L 106 307.5 L 105 313 L 120.5 309 Q 123 310.19 122 314 Q 124.29 316.57 130.5 316 Q 140.06 313.56 145 306.5 L 141.5 306 L 137.5 308 Q 134.06 304.44 135 296.5 L 136 291.5 L 132.5 294 L 126.5 298 L 122.5 298 L 119 292.5 L 118.5 283 L 108.5 289 L 105.5 289 Q 101.5 287.5 103 280.5 L 105 275.5 L 103.5 275 Q 101.89 279.89 94.5 279 L 93 277.5 L 91.5 270 L 88.5 274 L 83 271.5 L 85 258.5 L 90 245.5 L 88.5 245 L 77.5 253 L 77 251.5 L 79 248.5 L 82 235.5 L 90 221.5 L 114.5 193 L 153 162 L 154 159.5 L 152.5 159 L 151 159.5 L 154 142.5 L 161 129 Q 156.3 129.45 154 133.5 Q 154.67 136.13 152 135 L 154 122.5 L 159 112.5 L 168 102.5 L 169 99.5 L 166.5 99 L 164.5 100 Q 163.25 97.75 162 100.5 L 163 103 Q 159 104.37 161 97.5 L 163 94 L 171 89 L 169.5 86 Q 159.57 84.43 153 79.5 L 170 77.5 Q 152.16 73.49 138 67 L 138.5 65 L 162.5 65 L 163.5 66 L 177.5 67 L 177.5 66 Q 155.94 58.56 141 44.5 L 141.5 43 L 179.5 57 L 178.5 55 L 171.5 51 L 157 39 L 151 30.5 L 149.5 25 Z M 183 73 L 184 75 L 202 84 L 184 86 L 190 88 L 215 92 Q 210 91 209 94 L 216 97 L 227 99 L 244 99 L 258 96 L 274 96 L 284 100 L 285 98 L 296 114 L 304 119 L 309 119 L 316 117 L 318 115 Q 320 116 319 112 L 305 107 L 272 88 L 261 85 L 243 83 L 242 82 L 226 81 L 183 73 Z M 269 103 Q 264 104 265 110 Q 266 114 271 113 Q 275 112 274 107 Q 274 103 269 103 Z M 255 107 L 256 117 L 264 122 Q 270 123 273 120 L 274 118 L 269 120 L 262 118 L 257 112 Q 259 106 255 107 Z M 329 116 L 324 121 L 310 125 L 349 126 L 350 127 L 368 127 L 369 128 L 393 128 L 394 129 L 405 129 L 406 130 L 410 130 L 408 128 L 372 123 L 338 116 L 329 116 Z M 191 123 L 182 126 L 180 129 L 182 128 L 185 129 L 176 135 L 163 152 L 164 155 L 176 149 L 177 149 L 172 161 L 194 154 L 195 160 L 205 167 L 216 167 L 217 166 L 220 167 Q 221 164 228 166 L 232 164 L 236 165 L 246 173 Q 250 174 252 171 L 258 175 L 263 174 L 264 172 L 267 177 Q 271 182 279 185 Q 286 187 283 180 L 306 201 L 308 200 L 308 187 Q 306 178 300 173 Q 300 165 304 161 Q 311 150 325 146 L 326 144 L 304 147 L 276 157 Q 272 158 271 156 Q 281 147 295 142 L 316 137 L 291 132 L 285 132 L 284 131 L 274 131 L 259 134 L 242 141 L 235 142 L 230 145 L 225 142 L 204 148 L 204 145 L 213 132 L 204 134 Q 198 135 196 132 L 198 131 Q 202 130 201 125 L 200 123 L 191 123 Z M 174 174 Q 172 177 167 175 L 148 182 L 117 200 Q 110 203 110 210 Q 123 206 132 197 Q 139 195 138 199 L 142 199 L 153 193 L 157 187 L 155 187 L 175 176 Q 176 173 174 174 Z M 181 191 L 167 197 L 163 197 L 160 200 L 161 202 L 167 205 Q 173 206 176 202 L 183 192 L 181 191 Z M 201 199 L 185 206 L 180 206 Q 178 215 184 217 Q 191 218 195 215 Q 201 211 203 203 Q 205 198 201 199 Z M 221 203 L 216 205 Q 213 204 214 207 Q 208 214 198 217 L 195 221 Q 194 227 199 228 L 204 228 L 211 225 Q 219 218 223 207 Q 225 202 221 203 Z M 136 213 L 133 218 Q 132 224 135 228 L 142 234 L 144 235 L 137 240 Q 131 241 130 238 Q 124 235 125 227 Q 121 229 112 228 L 108 221 Q 99 229 94 242 Q 93 246 96 247 L 103 247 L 115 240 L 121 239 L 120 245 L 114 255 Q 113 259 116 260 L 124 260 L 134 255 L 134 258 L 128 269 Q 127 276 132 277 Q 139 278 143 274 L 146 275 L 143 281 Q 142 288 144 291 L 147 292 Q 153 291 156 286 L 157 288 L 158 294 L 161 296 L 172 292 Q 179 287 183 278 L 184 276 L 179 277 L 173 281 L 169 280 Q 166 275 167 266 Q 165 272 157 271 L 153 267 Q 151 251 159 245 L 163 252 L 167 253 L 175 251 L 175 263 L 179 267 L 188 266 L 195 260 L 201 272 L 210 268 Q 215 264 217 258 L 209 259 L 206 250 L 207 247 L 206 244 L 193 250 L 189 249 L 184 244 L 184 231 L 177 235 L 172 234 L 167 224 L 158 228 L 154 227 Q 150 223 151 215 L 144 219 L 140 218 L 136 213 Z M 203 280 L 188 289 L 171 302 L 150 309 Q 149 315 155 317 L 170 311 L 191 296 L 205 281 L 203 280 Z M 121 322 L 60 363 L 53 371 L 59 369 L 122 331 L 128 323 L 121 322 Z M 59 335 L 54 341 L 55 342 L 59 337 L 59 335 Z M 126 342 L 75 372 Q 72 371 73 374 L 82 372 L 93 366 L 127 343 L 126 342 Z M 64 345 L 61 346 L 57 355 L 62 353 L 67 347 Q 68 343 64 345 Z M 272 350 L 272 352 Q 274 357 271 359 L 272 362 Q 275 359 274 352 L 272 350 Z M 112 367 L 96 379 L 83 385 L 74 385 L 73 384 Q 70 385 71 382 L 68 382 L 67 392 L 60 411 L 61 413 L 68 410 L 75 402 Q 78 404 76 411 L 78 412 L 87 408 Q 103 391 113 368 L 112 367 Z " /></svg>